<svg xmlns="http://www.w3.org/2000/svg" width="104.507" height="98.482" viewBox="0 0 104.507 98.482">
  <g id="warning" transform="translate(-19.188 -20.321)">
    <g id="Group_56" data-name="Group 56" transform="translate(19.188 20.321)">
      <path id="Path_96" data-name="Path 96" d="M102.336,90.117,65.419,22.253a15.31,15.31,0,0,0-26.33,0L2.173,90.117a15.3,15.3,0,0,0,13.162,23.125H89.171A15.3,15.3,0,0,0,102.336,90.117ZM52.254,100.994a6.123,6.123,0,1,1,6.123-6.123A6.131,6.131,0,0,1,52.254,100.994ZM58.377,76.5a6.123,6.123,0,0,1-12.247,0V45.883a6.123,6.123,0,0,1,12.247,0Z" transform="translate(0 -14.759)" fill="#ef1212"/>
    </g>
  </g>
</svg>
